<svg width="218" height="40" viewBox="0 0 218 40" fill="none" xmlns="http://www.w3.org/2000/svg">
<g clip-path="url(#clip0_77_37)">
<path d="M202.368 27.1V24.8H212.168C212.728 24.8 213.008 24.4867 213.008 23.86C213.008 23.2467 212.728 22.94 212.168 22.94H205.828C204.641 22.94 203.741 22.6734 203.128 22.14C202.514 21.5934 202.208 20.8134 202.208 19.8C202.208 18.7734 202.514 17.9867 203.128 17.44C203.754 16.88 204.654 16.6 205.828 16.6H214.948V18.9H205.968C205.394 18.9 205.108 19.18 205.108 19.74C205.108 20.02 205.188 20.24 205.348 20.4C205.508 20.56 205.714 20.64 205.968 20.64H212.688C213.728 20.64 214.521 20.9134 215.068 21.46C215.628 21.9934 215.908 22.7734 215.908 23.8C215.908 24.84 215.628 25.6534 215.068 26.24C214.508 26.8134 213.714 27.1 212.688 27.1H202.368Z" fill="black"/>
<path d="M191.632 27C190.459 27 189.599 26.7067 189.052 26.12C188.519 25.5333 188.252 24.7733 188.252 23.84V16.7H191.152V23.5C191.152 24.3 191.552 24.7 192.352 24.7H196.512C197.312 24.7 197.712 24.3 197.712 23.5V16.7H200.612V23.84C200.612 24.7733 200.339 25.5333 199.792 26.12C199.259 26.7067 198.405 27 197.232 27H191.632Z" fill="black"/>
<path d="M172.823 27L176.703 21.86L172.823 16.72H176.223L179.203 20.7H180.663L183.663 16.72H187.043L183.183 21.86L187.043 27H183.663L180.643 23H179.203L176.223 27H172.823Z" fill="black"/>
<path d="M163.905 27.1C162.119 27.1 160.725 26.66 159.725 25.78C158.725 24.8867 158.225 23.58 158.225 21.86C158.225 20.1267 158.725 18.82 159.725 17.94C160.725 17.0467 162.119 16.6 163.905 16.6H168.905C170.079 16.6 170.972 16.88 171.585 17.44C172.212 17.9867 172.525 18.7734 172.525 19.8C172.525 21.8934 171.319 22.94 168.905 22.94H161.345C161.625 24.18 162.479 24.8 163.905 24.8H172.005V27.1H163.905ZM163.905 18.9C162.532 18.9 161.685 19.48 161.365 20.64H168.765C169.032 20.64 169.239 20.56 169.385 20.4C169.545 20.24 169.625 20.02 169.625 19.74C169.625 19.18 169.339 18.9 168.765 18.9H163.905Z" fill="black"/>
<path d="M139.57 27V12.7H142.81L152.93 22.98V12.7H156.13V27H152.89L142.77 16.7V27H139.57Z" fill="black"/>
<path d="M133.725 27V24.14H136.925V27H133.725Z" fill="#2078A4"/>
<path d="M119.172 27V12.7H122.072V16.7H128.152C129.326 16.7 130.179 16.9933 130.712 17.58C131.259 18.1533 131.532 18.9133 131.532 19.86V27H128.632V20.2C128.632 19.4 128.232 19 127.432 19H122.072V27H119.172Z" fill="black"/>
<path d="M113.321 27C112.161 27 111.308 26.7134 110.761 26.14C110.215 25.5534 109.941 24.7867 109.941 23.84V19H106.961V16.7H109.941V13.54H112.841V16.7H117.121V19H112.841V23.48C112.841 24.2934 113.241 24.7 114.041 24.7H117.681V27H113.321Z" fill="black"/>
<path d="M102.864 27V12.7H105.764V27H102.864Z" fill="black"/>
<path d="M90.0763 27C88.9963 27 88.1697 26.7267 87.5963 26.18C87.023 25.6333 86.7363 24.8533 86.7363 23.84C86.7363 22.84 87.023 22.0667 87.5963 21.52C88.1697 20.9733 88.9963 20.7 90.0763 20.7H97.7563V20.22C97.7563 19.4067 97.3563 19 96.5563 19H88.0763V16.7H97.3163C98.5297 16.7 99.3897 16.98 99.8963 17.54C100.403 18.0867 100.656 18.86 100.656 19.86V27H90.0763ZM90.5963 24.7H97.7563V23H90.5963C90.343 23 90.143 23.08 89.9963 23.24C89.863 23.3867 89.7963 23.5867 89.7963 23.84C89.7963 24.0933 89.863 24.3 89.9963 24.46C90.143 24.62 90.343 24.7 90.5963 24.7Z" fill="black"/>
<path d="M76.9133 27.1C75.1266 27.1 73.7333 26.66 72.7333 25.78C71.7333 24.8867 71.2333 23.58 71.2333 21.86C71.2333 20.1267 71.7333 18.82 72.7333 17.94C73.7333 17.0467 75.1266 16.6 76.9133 16.6H81.9133C83.0866 16.6 83.9799 16.88 84.5933 17.44C85.2199 17.9867 85.5333 18.7734 85.5333 19.8C85.5333 21.8934 84.3266 22.94 81.9133 22.94H74.3533C74.6333 24.18 75.4866 24.8 76.9133 24.8H85.0133V27.1H76.9133ZM76.9133 18.9C75.5399 18.9 74.6933 19.48 74.3733 20.64H81.7733C82.0399 20.64 82.2466 20.56 82.3933 20.4C82.5533 20.24 82.6333 20.02 82.6333 19.74C82.6333 19.18 82.3466 18.9 81.7733 18.9H76.9133Z" fill="black"/>
<path d="M52.6559 27V12.7H55.8559V18.56H65.9359V12.7H69.1359V27H65.9359V21.16H55.8559V27H52.6559Z" fill="black"/>
<path d="M25.8605 12.1395V9.11628V6.32559C25.8605 2.83206 23.0284 0 19.5349 0C16.1441 0 13.3953 2.74876 13.3953 6.13954V9.11628V12.093C13.3953 12.1187 13.3745 12.1395 13.3488 12.1395C13.3231 12.1395 13.3023 12.1605 13.3023 12.1862C13.3023 12.2118 13.2817 12.2328 13.2561 12.233L8.74419 12.2791H7.81398C3.49844 12.2791 0 15.7775 0 20.093C0 24.3058 3.41513 27.7209 7.6279 27.7209H8.74419H13.2558C13.2815 27.7209 13.3023 27.7418 13.3023 27.7674C13.3023 27.7931 13.3231 27.814 13.3488 27.814C13.3745 27.814 13.3953 27.8348 13.3953 27.8605V30.8837V33.8605C13.3953 37.2512 16.1441 40 19.5349 40C23.0284 40 25.8605 37.1679 25.8605 33.6744V30.8837V27.8605C25.8605 27.8348 25.8813 27.814 25.907 27.814C25.9327 27.814 25.9535 27.7931 25.9535 27.7674C25.9535 27.7418 25.9743 27.7209 26 27.7209H30.5116H31.6279C35.8407 27.7209 39.2558 24.3058 39.2558 20.093C39.2558 15.7775 35.7574 12.2791 31.4419 12.2791H30.5116H26C25.9743 12.2791 25.9535 12.2582 25.9535 12.2326C25.9535 12.2069 25.9327 12.186 25.907 12.186C25.8813 12.186 25.8605 12.1652 25.8605 12.1395Z" fill="#103157"/>
<path d="M8.74414 15.0698H13.3023H14.3883C14.4984 15.0698 14.6054 15.1061 14.6928 15.1731L16.5581 16.6046V15.0698H22.6976H25.9534H30.5116H31.4418C34.2161 15.0698 36.4651 17.3188 36.4651 20.093C36.4651 22.7645 34.2994 24.9302 31.6279 24.9302H30.5116H25.9534H24.8674C24.7573 24.9302 24.6503 24.8939 24.563 24.8269L22.6976 23.3953V24.9302H16.5581V26.0465L14.9302 24.9302H13.3023H8.74414H7.62787C4.95635 24.9302 2.79065 22.7645 2.79065 20.093C2.79065 17.3188 5.03964 15.0698 7.8139 15.0698H8.74414Z" fill="url(#paint0_linear_77_37)"/>
<path d="M22.6976 9.11627V13.6744V16.9302H25.9534H30.5116H33.3023C35.0491 16.9302 36.4651 18.3463 36.4651 20.093C36.4651 21.737 35.1323 23.0698 33.4883 23.0698H30.5116H25.9534H22.6976V26.3256V30.8837V33.6744C22.6976 35.4212 21.2816 36.8372 19.5348 36.8372C17.8908 36.8372 16.5581 35.5045 16.5581 33.8605V30.8837V26.3256V23.0698H13.3023H8.74414H5.76739C4.12338 23.0698 2.79065 21.737 2.79065 20.093C2.79065 18.3463 4.20668 16.9302 5.95344 16.9302H8.74414H13.3023H16.5581V13.6744V9.11627V6.23254C16.5581 4.58853 17.8908 3.2558 19.5348 3.2558C21.2816 3.2558 22.6976 4.67183 22.6976 6.41859V9.11627Z" fill="url(#paint1_linear_77_37)"/>
<g filter="url(#filter0_d_77_37)">
<ellipse cx="19.6279" cy="6.32557" rx="3.06977" ry="3.06977" fill="white"/>
</g>
<g filter="url(#filter1_d_77_37)">
<path d="M21.047 19.9543L16.6979 16.6478C16.6406 16.6042 16.5581 16.6451 16.5581 16.7172C16.5581 18.0236 17.1688 19.255 18.2088 20.0457L22.5578 23.3522C22.6152 23.3958 22.6976 23.3549 22.6976 23.2829C22.6976 21.9764 22.087 20.7451 21.047 19.9543Z" fill="white"/>
</g>
<path d="M23.0952 21.5175L14.6517 15.0835C14.5943 15.0397 14.5116 15.0807 14.5116 15.1528C14.5116 16.4592 15.1215 17.6907 16.1605 18.4825L24.6041 24.9165C24.6615 24.9603 24.7442 24.9193 24.7442 24.8472C24.7442 23.5408 24.1343 22.3093 23.0952 21.5175Z" fill="white"/>
<g filter="url(#filter2_d_77_37)">
<path d="M21.031 29.9564L16.2791 25.7209C16.2791 27.1412 16.8854 28.494 17.9457 29.439L22.6977 33.6744C22.6977 32.2541 22.0913 30.9014 21.031 29.9564Z" fill="white"/>
</g>
<path d="M21.0309 29.9566L13.3024 23.0698C13.3024 24.49 13.9088 25.8427 14.9692 26.7876L22.6977 33.6744C22.6977 32.2541 22.0913 30.9015 21.0309 29.9566Z" fill="white"/>
<path d="M10.4827 16.9302H5.76739C4.12338 16.9302 2.79065 18.263 2.79065 19.907V20.093H15.9069L12.9459 17.7787C12.2425 17.2289 11.3754 16.9302 10.4827 16.9302Z" fill="#01F1FF"/>
<path d="M28.7731 23.0698H33.4883C35.1324 23.0698 36.4651 21.737 36.4651 20.093V19.907H23.3488L26.3098 22.2213C27.0132 22.7711 27.8803 23.0698 28.7731 23.0698Z" fill="#01F1FF"/>
</g>
<defs>
<filter id="filter0_d_77_37" x="7.55811" y="-1.7442" width="24.1395" height="24.1395" filterUnits="userSpaceOnUse" color-interpolation-filters="sRGB">
<feFlood flood-opacity="0" result="BackgroundImageFix"/>
<feColorMatrix in="SourceAlpha" type="matrix" values="0 0 0 0 0 0 0 0 0 0 0 0 0 0 0 0 0 0 127 0" result="hardAlpha"/>
<feOffset dy="4"/>
<feGaussianBlur stdDeviation="4.5"/>
<feComposite in2="hardAlpha" operator="out"/>
<feColorMatrix type="matrix" values="0 0 0 0 0.117647 0 0 0 0 0.47451 0 0 0 0 0.65098 0 0 0 0.6 0"/>
<feBlend mode="normal" in2="BackgroundImageFix" result="effect1_dropShadow_77_37"/>
<feBlend mode="normal" in="SourceGraphic" in2="effect1_dropShadow_77_37" result="shape"/>
</filter>
<filter id="filter1_d_77_37" x="-3.44189" y="1.62988" width="46.1395" height="46.7403" filterUnits="userSpaceOnUse" color-interpolation-filters="sRGB">
<feFlood flood-opacity="0" result="BackgroundImageFix"/>
<feColorMatrix in="SourceAlpha" type="matrix" values="0 0 0 0 0 0 0 0 0 0 0 0 0 0 0 0 0 0 127 0" result="hardAlpha"/>
<feOffset dy="5"/>
<feGaussianBlur stdDeviation="10"/>
<feComposite in2="hardAlpha" operator="out"/>
<feColorMatrix type="matrix" values="0 0 0 0 0.137255 0 0 0 0 0.521569 0 0 0 0 0.682353 0 0 0 1 0"/>
<feBlend mode="normal" in2="BackgroundImageFix" result="effect1_dropShadow_77_37"/>
<feBlend mode="normal" in="SourceGraphic" in2="effect1_dropShadow_77_37" result="shape"/>
</filter>
<filter id="filter2_d_77_37" x="9.27905" y="13.7209" width="30.4186" height="31.9535" filterUnits="userSpaceOnUse" color-interpolation-filters="sRGB">
<feFlood flood-opacity="0" result="BackgroundImageFix"/>
<feColorMatrix in="SourceAlpha" type="matrix" values="0 0 0 0 0 0 0 0 0 0 0 0 0 0 0 0 0 0 127 0" result="hardAlpha"/>
<feOffset dx="5"/>
<feGaussianBlur stdDeviation="6"/>
<feComposite in2="hardAlpha" operator="out"/>
<feColorMatrix type="matrix" values="0 0 0 0 0.117647 0 0 0 0 0.47451 0 0 0 0 0.65098 0 0 0 0.5 0"/>
<feBlend mode="normal" in2="BackgroundImageFix" result="effect1_dropShadow_77_37"/>
<feBlend mode="normal" in="SourceGraphic" in2="effect1_dropShadow_77_37" result="shape"/>
</filter>
<linearGradient id="paint0_linear_77_37" x1="2.79065" y1="20.5582" x2="36.4651" y2="20.5582" gradientUnits="userSpaceOnUse">
<stop stop-color="#2B9ABE"/>
<stop offset="0.484375" stop-color="#1C729F"/>
<stop offset="1" stop-color="#1E7BA8"/>
</linearGradient>
<linearGradient id="paint1_linear_77_37" x1="36.4651" y1="3.25582" x2="2.79065" y2="36.8372" gradientUnits="userSpaceOnUse">
<stop stop-color="#00F1FF"/>
<stop offset="1" stop-color="#3ABED7"/>
</linearGradient>
<clipPath id="clip0_77_37">
<rect width="217.256" height="40" fill="white"/>
</clipPath>
</defs>
</svg>
