<svg width="32" height="32" viewBox="0 0 32 32" fill="none" xmlns="http://www.w3.org/2000/svg">
<path d="M10.4375 10.375C11.9883 10.375 13.25 9.11331 13.25 7.5625C13.25 6.01169 11.9883 4.75 10.4375 4.75C8.88669 4.75 7.625 6.01169 7.625 7.5625C7.625 9.11331 8.88669 10.375 10.4375 10.375ZM10.4375 6.625C10.9544 6.625 11.375 7.04556 11.375 7.5625C11.375 8.07944 10.9544 8.5 10.4375 8.5C9.92056 8.5 9.5 8.07944 9.5 7.5625C9.5 7.04556 9.92056 6.625 10.4375 6.625ZM26.375 17.9422V3.8125C26.375 2.26169 25.1133 1 23.5625 1H2.8125C1.26169 1 0 2.26169 0 3.8125V22.5625L6.25e-05 22.5661L0.00025 22.5744C0.00675 24.1197 1.26569 25.375 2.8125 25.375H18.9422C19.3986 28.551 22.1372 31 25.4375 31C29.0561 31 32 28.0561 32 24.4375C32 21.1372 29.551 18.3986 26.375 17.9422ZM1.875 3.8125C1.875 3.29556 2.29556 2.875 2.8125 2.875H23.5625C24.0794 2.875 24.5 3.29556 24.5 3.8125V13.7962L20.5446 8.85188C20.4567 8.7421 20.3453 8.65348 20.2186 8.59258C20.0919 8.53169 19.9531 8.50007 19.8125 8.50007C19.6719 8.50007 19.5331 8.53169 19.4064 8.59258C19.2797 8.65348 19.1683 8.7421 19.0804 8.85188L12.6875 16.843L9.29456 12.6018C9.20714 12.4925 9.09635 12.4042 8.97034 12.3433C8.84432 12.2824 8.70627 12.2505 8.56631 12.2499C8.28288 12.2505 8.01406 12.376 7.83519 12.5959L1.875 19.924V3.8125ZM2.8125 23.5C2.39319 23.5 2.03738 23.2232 1.91794 22.8429L8.5565 14.6807L11.9555 18.9294C12.0433 19.0392 12.1547 19.1278 12.2815 19.1887C12.4082 19.2496 12.547 19.2812 12.6876 19.2812C12.8282 19.2812 12.9669 19.2496 13.0937 19.1887C13.2204 19.1278 13.3318 19.0392 13.4196 18.9294L19.8125 10.9382L24.5 16.7976V17.9423C21.6302 18.3546 19.3546 20.6303 18.9422 23.5001H2.8125V23.5ZM25.4375 29.125C22.8528 29.125 20.75 27.0222 20.75 24.4375C20.75 21.8528 22.8528 19.75 25.4375 19.75C28.0222 19.75 30.125 21.8528 30.125 24.4375C30.125 27.0222 28.0222 29.125 25.4375 29.125ZM26.1004 21.8996L26.1003 21.8995C25.7318 21.5312 25.1361 21.5384 24.7748 21.8995L24.7747 21.8996L22.8997 23.7746C22.5336 24.1408 22.5336 24.7343 22.8997 25.1004C23.2657 25.4666 23.8594 25.4666 24.2255 25.1004L24.5001 24.8258V26.3125C24.5001 26.8303 24.9199 27.25 25.4376 27.25C25.9554 27.25 26.3751 26.8303 26.3751 26.3125V24.8258L26.6497 25.1004C27.0158 25.4665 27.6094 25.4666 27.9756 25.1004C28.3417 24.7343 28.3417 24.1408 27.9756 23.7746L26.1004 21.8996Z" fill="#123359"/>
</svg>
