<svg width="119" height="32" viewBox="0 0 119 32" fill="none" xmlns="http://www.w3.org/2000/svg">
<path fill-rule="evenodd" clip-rule="evenodd" d="M106.433 20.0354H99.1378V17.8573H106.572C112.465 17.8573 116.453 14.7742 116.453 10.055V9.9655C116.453 4.92804 112.554 2.29744 106.846 2.29744H90.6045V31.8757H88.2474V0.119348H107.025C114.006 0.119348 118.81 3.25719 118.81 9.82626V9.91577C118.805 16.5893 113.052 20.0354 106.433 20.0354ZM75.517 23.7352H78.1526L83.2348 31.9851H80.6539L75.517 23.7352ZM62.349 2.58586L44.1088 31.9851H41.6621L61.26 0H63.5276L74.5274 17.8623H71.852L62.349 2.58586ZM33.7902 0.243668H36.1473V32H33.7902V0.243668ZM2.35711 32H0V0.243668H26.7935V2.42176H2.35711V32ZM20.304 17.6186H8.80186V15.4406H20.3089V17.6186H20.304Z" fill="black"/>
</svg>
