<svg width="164" height="87" viewBox="0 0 164 87" fill="none" xmlns="http://www.w3.org/2000/svg">
<path d="M149.712 86.4V84.1H159.512C160.072 84.1 160.352 83.7867 160.352 83.16C160.352 82.5467 160.072 82.24 159.512 82.24H153.172C151.985 82.24 151.085 81.9734 150.472 81.44C149.858 80.8934 149.552 80.1134 149.552 79.1C149.552 78.0734 149.858 77.2867 150.472 76.74C151.098 76.18 151.998 75.9 153.172 75.9H162.292V78.2H153.312C152.738 78.2 152.452 78.48 152.452 79.04C152.452 79.32 152.532 79.54 152.692 79.7C152.852 79.86 153.058 79.94 153.312 79.94H160.032C161.072 79.94 161.865 80.2134 162.412 80.76C162.972 81.2934 163.252 82.0734 163.252 83.1C163.252 84.14 162.972 84.9534 162.412 85.54C161.852 86.1134 161.058 86.4 160.032 86.4H149.712Z" fill="black"/>
<path d="M138.976 86.3C137.803 86.3 136.943 86.0067 136.396 85.42C135.863 84.8333 135.596 84.0733 135.596 83.14V76H138.496V82.8C138.496 83.6 138.896 84 139.696 84H143.856C144.656 84 145.056 83.6 145.056 82.8V76H147.956V83.14C147.956 84.0733 147.683 84.8333 147.136 85.42C146.603 86.0067 145.75 86.3 144.576 86.3H138.976Z" fill="black"/>
<path d="M120.167 86.3L124.047 81.16L120.167 76.02H123.567L126.547 80H128.007L131.007 76.02H134.387L130.527 81.16L134.387 86.3H131.007L127.987 82.3H126.547L123.567 86.3H120.167Z" fill="black"/>
<path d="M111.249 86.4C109.463 86.4 108.069 85.96 107.069 85.08C106.069 84.1867 105.569 82.88 105.569 81.16C105.569 79.4267 106.069 78.12 107.069 77.24C108.069 76.3467 109.463 75.9 111.249 75.9H116.249C117.423 75.9 118.316 76.18 118.929 76.74C119.556 77.2867 119.869 78.0734 119.869 79.1C119.869 81.1934 118.663 82.24 116.249 82.24H108.689C108.969 83.48 109.823 84.1 111.249 84.1H119.349V86.4H111.249ZM111.249 78.2C109.876 78.2 109.029 78.78 108.709 79.94H116.109C116.376 79.94 116.583 79.86 116.729 79.7C116.889 79.54 116.969 79.32 116.969 79.04C116.969 78.48 116.683 78.2 116.109 78.2H111.249Z" fill="black"/>
<path d="M86.9141 86.3V72H90.1541L100.274 82.28V72H103.474V86.3H100.234L90.1141 76V86.3H86.9141Z" fill="black"/>
<path d="M81.0693 86.3V83.44H84.2693V86.3H81.0693Z" fill="#2078A4"/>
<path d="M66.5166 86.3V72H69.4166V76H75.4966C76.6699 76 77.5233 76.2933 78.0566 76.88C78.6033 77.4533 78.8766 78.2133 78.8766 79.16V86.3H75.9766V79.5C75.9766 78.7 75.5766 78.3 74.7766 78.3H69.4166V86.3H66.5166Z" fill="black"/>
<path d="M60.6657 86.3C59.5057 86.3 58.6523 86.0134 58.1057 85.44C57.559 84.8534 57.2857 84.0867 57.2857 83.14V78.3H54.3057V76H57.2857V72.84H60.1857V76H64.4657V78.3H60.1857V82.78C60.1857 83.5934 60.5857 84 61.3857 84H65.0257V86.3H60.6657Z" fill="black"/>
<path d="M50.208 86.3V72H53.108V86.3H50.208Z" fill="black"/>
<path d="M37.4206 86.3C36.3406 86.3 35.5139 86.0267 34.9406 85.48C34.3672 84.9333 34.0806 84.1533 34.0806 83.14C34.0806 82.14 34.3672 81.3667 34.9406 80.82C35.5139 80.2733 36.3406 80 37.4206 80H45.1006V79.52C45.1006 78.7067 44.7006 78.3 43.9006 78.3H35.4206V76H44.6606C45.8739 76 46.7339 76.28 47.2406 76.84C47.7472 77.3867 48.0006 78.16 48.0006 79.16V86.3H37.4206ZM37.9406 84H45.1006V82.3H37.9406C37.6872 82.3 37.4872 82.38 37.3406 82.54C37.2072 82.6867 37.1406 82.8867 37.1406 83.14C37.1406 83.3933 37.2072 83.6 37.3406 83.76C37.4872 83.92 37.6872 84 37.9406 84Z" fill="black"/>
<path d="M24.2571 86.4C22.4705 86.4 21.0771 85.96 20.0771 85.08C19.0771 84.1867 18.5771 82.88 18.5771 81.16C18.5771 79.4267 19.0771 78.12 20.0771 77.24C21.0771 76.3467 22.4705 75.9 24.2571 75.9H29.2571C30.4305 75.9 31.3238 76.18 31.9371 76.74C32.5638 77.2867 32.8771 78.0734 32.8771 79.1C32.8771 81.1934 31.6705 82.24 29.2571 82.24H21.6971C21.9771 83.48 22.8305 84.1 24.2571 84.1H32.3571V86.4H24.2571ZM24.2571 78.2C22.8838 78.2 22.0371 78.78 21.7171 79.94H29.1171C29.3838 79.94 29.5905 79.86 29.7371 79.7C29.8971 79.54 29.9771 79.32 29.9771 79.04C29.9771 78.48 29.6905 78.2 29.1171 78.2H24.2571Z" fill="black"/>
<path d="M0 86.3V72H3.2V77.86H13.28V72H16.48V86.3H13.28V80.46H3.2V86.3H0Z" fill="black"/>
<g filter="url(#filter0_d_133_58)">
<rect x="53.626" y="4" width="56" height="56" rx="12" fill="white"/>
<g clip-path="url(#clip0_133_58)">
<path d="M87.4865 24.1395V21.1163V18.3256C87.4865 14.8321 84.6544 12 81.1609 12C77.7701 12 75.0213 14.7488 75.0213 18.1395V21.1163V24.093C75.0213 24.1187 75.0005 24.1395 74.9748 24.1395C74.9491 24.1395 74.9283 24.1605 74.9283 24.1862C74.9283 24.2118 74.9077 24.2328 74.882 24.233L70.3702 24.2791H69.44C65.1244 24.2791 61.626 27.7775 61.626 32.093C61.626 36.3058 65.0411 39.7209 69.2539 39.7209H70.3702H74.8818C74.9075 39.7209 74.9283 39.7418 74.9283 39.7674C74.9283 39.7931 74.9491 39.814 74.9748 39.814C75.0005 39.814 75.0213 39.8348 75.0213 39.8605V42.8837V45.8605C75.0213 49.2512 77.7701 52 81.1609 52C84.6544 52 87.4865 49.1679 87.4865 45.6744V42.8837V39.8605C87.4865 39.8348 87.5073 39.814 87.533 39.814C87.5587 39.814 87.5795 39.7931 87.5795 39.7674C87.5795 39.7418 87.6003 39.7209 87.626 39.7209H92.1376H93.2539C97.4667 39.7209 100.882 36.3058 100.882 32.093C100.882 27.7775 97.3834 24.2791 93.0678 24.2791H92.1376H87.626C87.6003 24.2791 87.5795 24.2582 87.5795 24.2326C87.5795 24.2069 87.5587 24.186 87.533 24.186C87.5073 24.186 87.4865 24.1652 87.4865 24.1395Z" fill="#103157"/>
<path d="M70.37 27.0698H74.9281H76.0142C76.1243 27.0698 76.2313 27.1061 76.3186 27.1731L78.184 28.6046V27.0698H84.3235H87.5793H92.1374H93.0677C95.8419 27.0698 98.0909 29.3188 98.0909 32.093C98.0909 34.7645 95.9252 36.9302 93.2537 36.9302H92.1374H87.5793H86.4932C86.3832 36.9302 86.2762 36.8939 86.1888 36.8269L84.3235 35.3953V36.9302H78.184V38.0465L76.556 36.9302H74.9281H70.37H69.2537C66.5822 36.9302 64.4165 34.7645 64.4165 32.093C64.4165 29.3188 66.6655 27.0698 69.4398 27.0698H70.37Z" fill="url(#paint0_linear_133_58)"/>
<path d="M84.3235 21.1163V25.6744V28.9302H87.5793H92.1374H94.9281C96.6749 28.9302 98.0909 30.3463 98.0909 32.093C98.0909 33.737 96.7582 35.0698 95.1142 35.0698H92.1374H87.5793H84.3235V38.3256V42.8837V45.6744C84.3235 47.4212 82.9075 48.8372 81.1607 48.8372C79.5167 48.8372 78.184 47.5045 78.184 45.8605V42.8837V38.3256V35.0698H74.9281H70.37H67.3932C65.7492 35.0698 64.4165 33.737 64.4165 32.093C64.4165 30.3463 65.8325 28.9302 67.5793 28.9302H70.37H74.9281H78.184V25.6744V21.1163V18.2325C78.184 16.5885 79.5167 15.2558 81.1607 15.2558C82.9075 15.2558 84.3235 16.6718 84.3235 18.4186V21.1163Z" fill="url(#paint1_linear_133_58)"/>
<g filter="url(#filter1_d_133_58)">
<ellipse cx="81.2539" cy="18.3256" rx="3.06977" ry="3.06977" fill="white"/>
</g>
<g filter="url(#filter2_d_133_58)">
<path d="M82.673 31.9543L78.3239 28.6478C78.2666 28.6042 78.1841 28.6451 78.1841 28.7172C78.1841 30.0236 78.7947 31.255 79.8347 32.0457L84.1838 35.3522C84.2411 35.3958 84.3236 35.3549 84.3236 35.2829C84.3236 33.9764 83.713 32.7451 82.673 31.9543Z" fill="white"/>
</g>
<path d="M84.7213 33.5175L76.2778 27.0835C76.2204 27.0397 76.1377 27.0807 76.1377 27.1528C76.1377 28.4592 76.7476 29.6907 77.7866 30.4825L86.2302 36.9165C86.2876 36.9603 86.3703 36.9193 86.3703 36.8472C86.3703 35.5408 85.7604 34.3093 84.7213 33.5175Z" fill="white"/>
<g filter="url(#filter3_d_133_58)">
<path d="M82.6572 41.9564L77.9053 37.7209C77.9053 39.1412 78.5116 40.494 79.5719 41.439L84.3239 45.6744C84.3239 44.2541 83.7175 42.9014 82.6572 41.9564Z" fill="white"/>
</g>
<path d="M82.6568 41.9566L74.9282 35.0698C74.9282 36.49 75.5347 37.8427 76.595 38.7876L84.3236 45.6744C84.3236 44.2541 83.7171 42.9015 82.6568 41.9566Z" fill="white"/>
<path d="M72.1085 28.9302H67.3932C65.7492 28.9302 64.4165 30.263 64.4165 31.907V32.093H77.5328L74.5718 29.7787C73.8684 29.2289 73.0013 28.9302 72.1085 28.9302Z" fill="#01F1FF"/>
<path d="M90.3993 35.0698H95.1146C96.7586 35.0698 98.0913 33.737 98.0913 32.093V31.907H84.975L87.936 34.2213C88.6394 34.7711 89.5065 35.0698 90.3993 35.0698Z" fill="#01F1FF"/>
</g>
</g>
<defs>
<filter id="filter0_d_133_58" x="49.626" y="0" width="64" height="64" filterUnits="userSpaceOnUse" color-interpolation-filters="sRGB">
<feFlood flood-opacity="0" result="BackgroundImageFix"/>
<feColorMatrix in="SourceAlpha" type="matrix" values="0 0 0 0 0 0 0 0 0 0 0 0 0 0 0 0 0 0 127 0" result="hardAlpha"/>
<feOffset/>
<feGaussianBlur stdDeviation="2"/>
<feComposite in2="hardAlpha" operator="out"/>
<feColorMatrix type="matrix" values="0 0 0 0 0 0 0 0 0 0 0 0 0 0 0 0 0 0 0.25 0"/>
<feBlend mode="normal" in2="BackgroundImageFix" result="effect1_dropShadow_133_58"/>
<feBlend mode="normal" in="SourceGraphic" in2="effect1_dropShadow_133_58" result="shape"/>
</filter>
<filter id="filter1_d_133_58" x="69.1841" y="10.2558" width="24.1396" height="24.1395" filterUnits="userSpaceOnUse" color-interpolation-filters="sRGB">
<feFlood flood-opacity="0" result="BackgroundImageFix"/>
<feColorMatrix in="SourceAlpha" type="matrix" values="0 0 0 0 0 0 0 0 0 0 0 0 0 0 0 0 0 0 127 0" result="hardAlpha"/>
<feOffset dy="4"/>
<feGaussianBlur stdDeviation="4.5"/>
<feComposite in2="hardAlpha" operator="out"/>
<feColorMatrix type="matrix" values="0 0 0 0 0.117647 0 0 0 0 0.47451 0 0 0 0 0.65098 0 0 0 0.6 0"/>
<feBlend mode="normal" in2="BackgroundImageFix" result="effect1_dropShadow_133_58"/>
<feBlend mode="normal" in="SourceGraphic" in2="effect1_dropShadow_133_58" result="shape"/>
</filter>
<filter id="filter2_d_133_58" x="58.1841" y="13.6299" width="46.1396" height="46.7403" filterUnits="userSpaceOnUse" color-interpolation-filters="sRGB">
<feFlood flood-opacity="0" result="BackgroundImageFix"/>
<feColorMatrix in="SourceAlpha" type="matrix" values="0 0 0 0 0 0 0 0 0 0 0 0 0 0 0 0 0 0 127 0" result="hardAlpha"/>
<feOffset dy="5"/>
<feGaussianBlur stdDeviation="10"/>
<feComposite in2="hardAlpha" operator="out"/>
<feColorMatrix type="matrix" values="0 0 0 0 0.137255 0 0 0 0 0.521569 0 0 0 0 0.682353 0 0 0 1 0"/>
<feBlend mode="normal" in2="BackgroundImageFix" result="effect1_dropShadow_133_58"/>
<feBlend mode="normal" in="SourceGraphic" in2="effect1_dropShadow_133_58" result="shape"/>
</filter>
<filter id="filter3_d_133_58" x="70.9053" y="25.7209" width="30.4185" height="31.9535" filterUnits="userSpaceOnUse" color-interpolation-filters="sRGB">
<feFlood flood-opacity="0" result="BackgroundImageFix"/>
<feColorMatrix in="SourceAlpha" type="matrix" values="0 0 0 0 0 0 0 0 0 0 0 0 0 0 0 0 0 0 127 0" result="hardAlpha"/>
<feOffset dx="5"/>
<feGaussianBlur stdDeviation="6"/>
<feComposite in2="hardAlpha" operator="out"/>
<feColorMatrix type="matrix" values="0 0 0 0 0.117647 0 0 0 0 0.47451 0 0 0 0 0.65098 0 0 0 0.5 0"/>
<feBlend mode="normal" in2="BackgroundImageFix" result="effect1_dropShadow_133_58"/>
<feBlend mode="normal" in="SourceGraphic" in2="effect1_dropShadow_133_58" result="shape"/>
</filter>
<linearGradient id="paint0_linear_133_58" x1="64.4165" y1="32.5582" x2="98.0909" y2="32.5582" gradientUnits="userSpaceOnUse">
<stop stop-color="#2B9ABE"/>
<stop offset="0.484375" stop-color="#1C729F"/>
<stop offset="1" stop-color="#1E7BA8"/>
</linearGradient>
<linearGradient id="paint1_linear_133_58" x1="98.0909" y1="15.2558" x2="64.4165" y2="48.8372" gradientUnits="userSpaceOnUse">
<stop stop-color="#00F1FF"/>
<stop offset="1" stop-color="#3ABED7"/>
</linearGradient>
<clipPath id="clip0_133_58">
<rect width="39.26" height="40" fill="white" transform="translate(61.626 12)"/>
</clipPath>
</defs>
</svg>
